<svg viewBox="0 0 2560 500.596" xmlns="http://www.w3.org/2000/svg"><path d="M683.98 40.873c1.214-.15 2.427-.313 3.654-.475.038 14.101.138 28.202.025 42.291-.363 4.992 1.364 9.81 1.414 14.739-1.464 6.857-1.627 13.864-1.001 20.82 5.543.213 10.911 1.627 16.291 2.878.388 2.815.651 5.63.963 8.458 2.515 1.201 5.03 2.377 7.545 3.616 1.152 21.295-3.171 233.73 3.416 254.05 3.616 9.935 1.351 20.708 1.739 31.03l4.767-.038c.723-11.941 3.673.474 3.441-47.046 3.328-.313 6.656-.601 9.997-.938.263-2.252.563-4.492.901-6.719 3.328.05 6.656.063 9.997.05.926 4.204 3.866 7.107 8.07 8.008.375 10.373-.238 20.758.413 31.13.838-.013 2.54-.038 3.378-.063-.038-27.94 0-55.879.25-83.819 13.651-.576 27.339-.488 40.99.188.504 23.921-2.304 23.077 6.169 28.127 1.928-147.94-4.907-115.09 9.985-127.59.988-10.923-.738-21.971.576-32.882 1.914-4.479 4.905-8.471 6.656-13.063 1.326 2.515 2.64 5.055 3.979 7.582 7.432-.25 14.865-.088 22.297.05.175 2.102.35 4.217.538 6.319l3.253-.038c.35-2.215.726-4.429 1.139-6.644 1.789-.025 3.604-.038 5.418-.075.785 13.888-.465 80.175.238 107.66 3.278.088 6.569.05 9.86-.012.163 22.635-.576 45.282.325 67.891 3.941.063 7.883 0 11.837-.063.163 4.079.3 8.158.45 12.237 3.416.125 6.844.175 10.273.225-4.373-13.877-.223-1.439-2.365-68.367 1.789-28.928-1.151-57.956.688-86.847 18.806-.3 37.624-.075 56.443-.238 1.414 17.517-.563 35.072.125 52.601 5.28.601 10.26-1.226 15.327-2.302 22.451 5.094 17.107 1.775 17.242 26.939 9.046-.263 18.105-.213 27.139.425.075 1.864.175 3.729.275 5.593 11.588 7.708 5.452 5.67 17.542 6.769.165 50.53-1.452 51.988 2.915 52.689.926-24.899-.25-49.836.338-74.735 8.921-1.126 16.917-6.068 25.85-6.869 10.147 2.102 20.52 1.439 30.805 1.577.45 20.833-.275 41.678.425 62.498 7.045-1.174.324-91.478 3.253-117.19 1-.238 26.419-6.308 29.441-8.333 1.351-2.452 2.302-5.092 3.428-7.657a341.918 341.918 0 004.117 5.718c15.44-1.376 30.893-.213 46.358-.063.876 34.146-.375 68.342.3 102.49 4.041.163 8.095.263 12.149.463.238 2.39.475 4.792.738 7.195 9.372.238 18.756.288 28.14.012-.025-8.433-.538-16.866.075-25.287 6.031.113 12.087.213 18.13-.175.113-6.469-.538-13.063 1.114-19.394 1.902-7.232 1.602-14.915 4.041-22.034 2.677-4.978 2.634.119 13.063-25.925 2.565-5.943 1.339-12.6 2.74-18.793a127.703 127.703 0 001.952-10.673c1.964 2.59 3.141 5.643 2.865 8.946-1.038 19.649 10.297 35.187 14.777 44.543 4.555 15.167 3.81 11.146 3.679 93.316 2.528.025 5.068.038 7.633.038.35-24.724.325-49.448.313-74.172-.163-5.08 2.277-9.772 2.402-14.827.175-4.892-.213-9.897 1.239-14.652 2.265-7.044 1.189-14.514 1.714-21.759-.1-3.078 2.715-4.955 4.192-7.357 3.466-4.567 2.115-11.123 5.818-15.515 4.867-5.731 4.129-13.801 6.031-20.683 2.628-8.433 1.139-17.354 1.339-26.025l1.014.05c-.934 43.678 2.98 31.46-4.755 44.131 3.854.751 7.758 1.301 11.686 1.664 1.089 4.454 2.14 8.909 3.328 13.338 1.051 3.754 5.305 6.143 4.955 10.36.037 4.242.45 8.496 1.827 12.55 11.349-2.59 23.173-2.165 34.709-1.289 6.694 10.435 16.016 18.918 25.738 26.526.046.526.099 87.058.1 87.585 4.892.125 9.997-.813 14.714.976 7.107 2.74 14.852.838 22.272 1.539 1.864-2.44 3.791-4.817 5.868-7.107 3.216 2.515 6.682 5.092 11.011 4.792.401-84.67-4.531-98.868 17.717-103.24-.012-2.865-.037-5.731-.025-8.596 2.152-1.376 4.304-2.828 6.694-3.829 3.266 3.015.851 8.083 2.427 11.837.964 2.127 2.24 4.091 3.228 6.219 1.577 3.128 1.789 7.595 6.081 8.033 1.376-1.752 1.877-5.055 4.692-4.98 19.738-1.223 7.367 1.545 30.33 4.98.012 6.431-.012 12.875.025 19.306 5.055.4 10.122.538 15.202.588.501 18.043-.113 36.098.263 54.153 2.465.988 4.93 2.002 7.407 3.04.588 8.471.35 16.967.663 25.462 1.414-.013 2.84-.025 4.279-.025 6.348-27.49 6.086-22.986 35.585-22.672 1.739.188 4.141-.125 4.917 1.914 4.417 10.886 9.797 21.759 10.01 33.783-.113 4.317 4.955 6.707 4.554 11.111.063 26.814-.475 53.64.275 80.453 4.229.113 8.471.113 12.725 0 .25-11.686-.35-23.398.288-35.072 4.842-.225 9.697-.288 14.552-.363.163-3.979.363-7.945.651-11.912 5.505.038 11.011.025 16.529.1.532 60.832-1.612 61.997 3.165 62.498.985-18.73.19-143.93.213-144.06 3.141-5.605 10.348-3.253 15.515-4.554 12.399-4.046 24.863-1.691 28.628.863 2.903 1.602 4.529 4.604 6.181 7.357 12.75-.813 25.5.626 38.262.35 1.874 6.565 1.027 41.278.988 42.279 8.233-.413 16.479-.025 24.724-.313.638-4.079 1.339-8.145 2.34-12.149 4.154 5.005 3.353 12.5 8.095 17.117 6.401 8.445 4.031-5.102 4.767 72.934 7.157.788 13.476-3.403 20.583-3.253.648-19.426-.993-91.212-.088-122.06 7.307-.45 14.639-.075 21.921.813 2.44-3.053 4.805-6.194 7.032-9.434 4.504 3.003 9.785 4.279 15.19 4.129.363 1.639.751 3.278 1.176 4.93 5.518.063 11.048.338 16.566.851.638 7.032.563 14.089.3 21.133 8.846.05 16.491 5.355 25.3 5.956 1.677 2.365 3.916 4.217 6.556 5.468 1.326 8.934.613 17.943.638 26.926 10.885-.5 21.771-1.314 32.682-.626.616-17.136-.406-95.649.3-135.19 7.37-.313 14.764-.225 22.159-.263-.075-7.457.851-14.877.663-22.322 8.045-.313 16.103-.05 24.161-.163 3.028-10.25-.279-8.492 12.349-10.01.2-20.17-.726-40.464 1.414-60.547 2.743 5.832 1.99 40.331 2.127 60.109 4.454.588 8.108 3.116 11.261 6.169 2.84 2.84 7.695 3.228 10.135 6.169 1.081 8.133.322 118 .513 236.71 5.03.138 10.072.138 15.127.012.196-12.514-.546-97.758.626-110.17 4.217-.163 8.446-.388 12.675-.751.238-7.357-1.214-15.09 1.889-22.046 7.194-.088 14.402-.113 21.609.188.838 7.082.7 14.201.338 21.308 9.259 6.055 6.899-3.934 7.044 43.267 7.633-.188 15.29-.425 22.935.175.926 8.921.037 17.867.3 26.789 4.029 1.339 8.271 1.927 12.362 3.116-.012 5.743-.375 11.486 0 17.242 5.155.113 10.323.1 15.49.188-.118-8.03-.819-91.475.563-99.56 7.983.263 16.065-.45 24.023.638 6.481 1.752 12.9 3.991 19.707 4.192.1 2.39.2 4.78.375 7.182 3.616-.088 7.257-.2 10.91-.3 0-3.891-.012-7.783.038-11.661 5.293-.838 10.648-.801 15.991-.288.288 1.764.613 3.516.989 5.268 4.967.05 9.947.075 14.939.075.2-2.565.375-5.142.551-7.708 5.43 0 10.873-.175 16.316-.225 0 0 .849 84.077.375 125.57 1.752-.05 3.516-.088 5.318-.113.785-16.509-.25-177.87.175-183.09 5.781-.388 11.574-.338 17.367-.113-.314-12.739-.451-89.899.088-99.985 9.972-.713 19.969-.25 29.954.113.238-4.329.075-8.671.1-13-.188-3.266 2.74-5.656 2.94-8.821-.676-14.126-.476-28.265-.863-42.416.325-3.879-1.026-8.721 2.29-11.636 13.643-13.969 5.746-5.723 8.408-66.64a233.558 233.558 0 014.117-3.091c.325 20.057-.726 40.139.113 60.184-.613 6.394 7.845 8.658 7.682 14.839.125 15.903.275 31.831-.7 47.709-.538 4.304 5.192 5.768 5.055 9.872.163 7.082-.438 14.151-.375 21.246 2.177-.25 4.392-.5 6.619-.726.125-4.655-.313-9.359.476-13.964 1.852-3.979 6.669-4.592 10.272-6.281 5.609-1.786 9.041-7.363 25.55-4.279 12.501 4.469 1.318-3.962 5.255 242.12 13.238-.075 26.501-.263 39.739.375.438 16.591-.363 33.195.125 49.799 1.289.2 2.59.413 3.929.626-.275-8.471-.225-16.954-.225-25.425.926.025 2.765.063 3.678.075.05 9.046-.263 18.08.088 27.114 19.069.975 8.897.128 23.398-3.303 1.713-27.37-2.918-138.49 3.015-141.29 5.43-.788 10.986-.45 16.479-.801.338-1.426.701-2.865 1.101-4.292 4.167-.338 7.845-2.24 10.61-5.393a344.832 344.832 0 004.78 4.942c23.621-1.646 23.466 1.889 33.845-2.327 2.865 1.114 5.806 2.077 8.796 2.953.788 1.489 1.577 3.003 2.603 4.404 3.103.913 3.541-2.978 4.88-4.88.901-.063 1.839-.125 2.815-.188.388 1.476.801 2.965 1.239 4.442 2.277.275 4.567.551 6.894.838.546 9.447.325 85.675.138 97.257 1.652-.013 3.328-.038 5.042-.075.726-6.444-2.09-14.514 3.341-19.482 3.716-4.217 10.21-6.281 11.499-12.325.525-6.644 1.164-13.688-1.376-20.007 1.314-1.614 2.765-3.153 3.829-4.98.726-4.204-.275-8.646 1.089-12.712 3.003-3.191 7.457-4.267 11.123-6.519 2.402-7.945-1.489-16.241.651-24.286 1.326-5.58-2.815-10.06-4.604-14.965 1.226-3.578 2.84-7.582 6.106-9.76 8.277-.188 5.954 2.154 5.993 202.44h-2560v-224.55c1.889 1.652 3.729 3.541 6.156 4.404 1.952-.813 3.729-1.977 5.543-3.028 1.301 1.802 2.54 3.666 3.954 5.393 3.991-.576 6.369-4.479 9.384-6.794 4.454 4.855 10.11 8.158 15.865 11.211 1.564 3.666.751 7.945 1.264 11.862 1.852-.463 3.929-.851 4.717-2.84 4.279-8.083 9.522-16.203 9.459-25.7.5.375 1.514 1.126 2.027 1.501 1.376 9.059 5.418 17.342 9.847 25.275 19.62 35.702 12.317 19.13 14.114 35.472 1.602.338 3.216.663 4.817.976.782 9.309.382 62.535.25 71.57 2.14.338 4.279.663 6.419 1.013.888 1.364 1.251 3.228 2.715 4.142 4.604.388 9.247.2 13.864.288.088-3.866-.038-7.745.313-11.611.4-4.204 2.415-8.108 2.465-12.362.45-7.933-1.376-16.341 2.277-23.773 1.051-3.528 4.717-4.817 7.67-6.319-1.828-24.819 10.525-36.268 14.477-35.435 6.957.888 12.6 6.068 16.116 11.899 2.615 4.717 7.282 7.67 10.498 11.887 1.076 4.73.713 9.659 1.251 14.464 5.43-.688 10.298-3.979 15.878-3.541 13.15-.15 26.326.3 39.438-.525.813-9.409-1.752-19.857 3.341-28.353 1.839-.976 3.891-1.426 5.856-2.052.762-20.856 3.126-3.345 3.353-32.269 1.552-1.239 3.116-2.465 4.667-3.691-.425-7.42 4.342-14.289 1.889-21.671h3.178c-2.377 7.382 2.265 14.289 1.864 21.696 1.526 1.239 3.065 2.465 4.604 3.704.025 6.106-.951 12.462 1.226 18.343 1.289 3.629 1.339 7.545 2.502 11.198 1.702 3.466 3.866 6.719 4.967 10.46 2.578 7.044.588 14.652 1.714 21.909 3.413 6 2.037 3.609 30.367 3.566.05-34.183-.325-68.367.163-102.54 2.352-.225 4.705-.438 7.057-.663l.788-6.656c3.854-1.013 7.708-2.002 11.636-2.665.488-1.401.963-2.803 1.439-4.192 2.24-1.476 5.58-2.377 6.118-5.38 4.017-13.755 7.84-5.361 16.441-5.818 8.095-.238 16.391 1.389 24.236-1.351 5.293-1.664 6.957 5.105 7.507 8.959 3.954.263 7.933.388 11.912.425 3.366 4.192 2.703 9.609 2.628 14.614 2.49 0 4.98 0 7.47-.012.363-1.577.713-3.141 1.064-4.717 6.544.375 13.238-.626 19.707.475 3.491 2.452 6.982 5.143 11.524 4.942-.729 31.689-.782 159.82-.263 174.74 2.19.3 4.404.588 6.619.876a473.32 473.32 0 002.077 3.378c5.756 1.664 11.486 4.279 17.642 3.078-.088-44.719.475-89.437-.063-134.16 4.129-2.315 8.12-4.88 11.912-7.72 4.066 3.403 8.871 5.656 13.438 8.283.966 1.68.382 68.05.375 69.055 6.857-.463 13.738-.225 20.62-.15.113 4.229-.35 8.546.475 12.737 1.389 2.19 4.267 3.716 4.129 6.619.275 5.193.025 10.398.35 15.59 8.045.338 16.091.5 24.136.4-.2-24.249.138-48.497-.2-72.746a698.33 698.33 0 0114.552-.1c.338-6.682-.4-13.363-.075-20.045 1.839-.363 3.691-.738 5.555-1.114-1.691-114.08 1.645-49.053 2.915-103.46 9.509-3.791 20.745-4.204 30.067.325 1.214 6.957.2 14.064.638 21.083.175 3.441 2.202 6.444 2.477 9.872.45 7.119-.138 14.264.15 21.396.15 5.493 2.84 10.548 2.928 16.066.463 11.849-.138 23.711.163 35.56 1.889-.063 3.779-.125 5.68-.213.163-5.568.275-11.148.238-16.716 3.166-.188 6.331-.35 9.497-.526.213-2.94.113-5.943.813-8.821 6.132-11.965 3.986 17.339 4.267-115.82 3.741-1.226 7.32-2.928 11.136-3.916 2.728-.088 5.355 1.064 8.108.888 7.357-1.126 14.714.888 22.109.05.275 2.59.626 5.168 1.051 7.733a67.897 67.897 0 003.303-5.205c3.866-.088 7.745-.05 11.636-.113.175-13.275-1.051-26.563.163-39.826a288.854 288.854 0 017.332-2.878c.4-2.277.788-4.554 1.239-6.807 5.293-1.101 10.51-2.515 15.765-3.766 1.304-25.463-.172-51.013 1.029-76.488z"/></svg>